<?xml version="1.0" encoding="utf-8"?>
<!-- Generator: Adobe Illustrator 16.0.0, SVG Export Plug-In . SVG Version: 6.00 Build 0)  -->
<!DOCTYPE svg PUBLIC "-//W3C//DTD SVG 1.1//EN" "http://www.w3.org/Graphics/SVG/1.1/DTD/svg11.dtd">
<svg version="1.1" id="Calque_1" xmlns="http://www.w3.org/2000/svg" xmlns:xlink="http://www.w3.org/1999/xlink" x="0px" y="0px"
	 width="400px" height="400px" viewBox="0 0 400 400" enable-background="new 0 0 400 400" xml:space="preserve">
<g>
	<path d="M75.47,124.4h261.061c18.56,0,33.6-15.04,33.6-33.6s-15.359-33.6-33.92-33.6H75.47c-18.561,0-33.6,15.04-33.6,33.6
		S56.909,124.4,75.47,124.4z"/>
	<path d="M336.21,166.4H75.47c-18.561,0-33.6,15.04-33.6,33.6s15.039,33.6,33.6,33.6h261.061c18.56,0,33.6-15.039,33.6-33.6
		S354.771,166.4,336.21,166.4z"/>
	<path d="M336.21,275.6H75.47c-18.561,0-33.6,15.041-33.6,33.601s15.039,33.6,33.6,33.6h261.061c18.56,0,33.6-15.04,33.6-33.6
		S354.771,275.6,336.21,275.6z"/>
</g>
</svg>
